# xmcd
#
# Track frame offsets: 
#        150
#        13796
#        30630
#        46883
#        64866
#        80407
#        102883
#        123855
#        139610
#        152623
#
# Disc length: 2321 seconds
#
# Revision: 0
# Processed by: cddbd v1.5.2PL0 Copyright (c) Steve Scherf et al.
# Submitted via: ExactAudioCopyFreeDBPlugin 1.0
#
DISCID=75090f0a
DTITLE=Matt Masters - All-Western Winners
DYEAR=2011
DGENRE=Country
TTITLE0=Highways
TTITLE1=Two Girls
TTITLE2=Oh Saskatchewan
TTITLE3=The Recovery
TTITLE4=Candle Flame
TTITLE5=Snake Farm
TTITLE6=All-Western Winners
TTITLE7=Don't Worry 'bout Me
TTITLE8=Belleville Belvedere
TTITLE9=Desert Rose
EXTD=
EXTT0=
EXTT1=
EXTT2=
EXTT3=
EXTT4=
EXTT5=
EXTT6=
EXTT7=
EXTT8=
EXTT9=
PLAYORDER=
